<?xml version="1.0" encoding="UTF-8"?>
<svg id="Layer_2" data-name="Layer 2" xmlns="http://www.w3.org/2000/svg" viewBox="0 0 273.71 163.14">
  <defs>
    <style>
      .cls-1 {
        fill: #fff;
      }
    </style>
  </defs>
  <g id="Layer_2-2" data-name="Layer 2">
    <g id="uuid-ca10345b-42ee-4fed-b55a-6b1ce224a414" data-name="Layer 2-2">
      <g id="Layer_1-2" data-name="Layer 1-2">
        <path class="cls-1" d="M18.26,0h141.18c10.08,0,18.26,8.17,18.26,18.25h0c0,10.08-8.18,18.25-18.26,18.25H18.26C8.18,36.51,0,28.34,0,18.25H0C0,8.17,8.18,0,18.26,0Z"/>
        <path class="cls-1" d="M228.13,0h27.31c10.08,0,18.26,8.17,18.26,18.25h0c0,10.08-8.18,18.25-18.26,18.25h-27.31c-10.08,0-18.26-8.17-18.26-18.25h0c0-10.08,8.18-18.25,18.26-18.25h0Z"/>
        <path class="cls-1" d="M17.87,64.09h85.03c9.87,0,17.87,8,17.87,17.87h0c0,9.87-8,17.87-17.87,17.87H17.87C8,99.83,0,91.83,0,81.96H0C0,72.09,8,64.09,17.87,64.09Z"/>
        <path class="cls-1" d="M170.81,64.09h85.03c9.87,0,17.87,8,17.87,17.87h0c0,9.87-8,17.87-17.87,17.87h-85.03c-9.87,0-17.87-8-17.87-17.87h0c0-9.87,8-17.87,17.87-17.87Z"/>
        <path class="cls-1" d="M17.87,127.4h27.58c9.87,0,17.87,8,17.87,17.87h0c0,9.87-8,17.87-17.87,17.87h-27.58c-9.87,0-17.87-8-17.87-17.87h0c0-9.87,8-17.87,17.87-17.87Z"/>
        <path class="cls-1" d="M113.61,127.4h142.22c9.87,0,17.87,8,17.87,17.87h0c0,9.87-8,17.87-17.87,17.87H113.61c-9.87,0-17.87-8-17.87-17.87h0c0-9.87,8-17.87,17.87-17.87Z"/>
      </g>
    </g>
  </g>
</svg>